<?xml version="1.0" encoding="UTF-8"?>
<svg width="640" height="360" viewBox="0 0 640 360" xmlns="http://www.w3.org/2000/svg">
  <defs>
    <linearGradient id="g" x1="0" y1="0" x2="1" y2="1">
      <stop offset="0%" stop-color="#2FB3FF"/>
      <stop offset="100%" stop-color="#39E75F"/>
    </linearGradient>
    <filter id="glow" x="-50%" y="-50%" width="200%" height="200%">
      <feGaussianBlur stdDeviation="3.5" result="blur"/>
      <feMerge>
        <feMergeNode in="blur"/>
        <feMergeNode in="SourceGraphic"/>
      </feMerge>
    </filter>
  </defs>
  <!-- Brain silhouette -->
  <path d="M180,180c-30,-60 40,-120 95,-94c36,-35 120,-10 120,38c43,6 60,52 38,90c22,35 3,86 -46,92
           c-14,26 -48,40 -85,26c-39,30 -114,4 -111,-46c-51,-15 -63,-72 -11,-106z"
        fill="none" stroke="url(#g)" stroke-width="6" filter="url(#glow)"/>
  <!-- Compass -->
  <circle cx="320" cy="180" r="54" fill="none" stroke="#EAFBFF" stroke-width="1.5"/>
  <polygon points="320,122 332,180 320,238 308,180" fill="url(#g)" opacity="0.9"/>
  <circle cx="320" cy="180" r="4" fill="#EAFBFF"/>
  <!-- Wordmark -->
  <text x="320" y="320" font-family="Inter, Poppins, Arial" font-size="40" fill="#EAFBFF" text-anchor="middle" letter-spacing="1">
    DIVERGIFY
  </text>
</svg>
